<svg width="205" height="205" viewBox="0 0 205 205" fill="none" xmlns="http://www.w3.org/2000/svg">
<path d="M167.533 72.977C170.635 72.977 173.15 70.4625 173.15 67.3606C173.15 64.2587 170.635 61.7441 167.533 61.7441C164.432 61.7441 161.917 64.2587 161.917 67.3606C161.917 70.4625 164.432 72.977 167.533 72.977Z" fill="#DFBE16"/>
<path d="M129.222 12.1816C78.614 12.691 42.11 12.6031 39.5655 13.2128C34.5565 13.9649 30.2979 17.5585 28.2653 22.254C25.2607 29.1946 26.1692 26.7831 23.4548 159.983C23.2147 171.772 24.2864 182.359 35.8645 186.424C36.9819 187.164 38.2098 187.691 39.5196 187.977C49.4637 192.727 60.1856 192.766 71.3126 192.764C116.197 192.755 135.26 193.651 154.873 188.506C157.095 187.924 159.827 186.439 159.335 184.196C158.944 182.413 156.759 181.772 154.943 181.599C149.813 181.108 144.709 181.675 139.623 182.582C141.85 179.672 143.152 175.977 143.027 172.033C142.418 152.359 142.146 140.847 142.023 120.471C142.015 119.314 141.074 118.378 139.917 118.378C139.914 118.378 139.909 118.378 139.903 118.378C138.74 118.387 137.802 119.333 137.811 120.498C137.906 136.268 138.092 146.752 138.451 159.787C137.644 159.518 143.656 159.72 34.56 159.654C34.7059 121.539 34.9319 79.441 35.0603 41.115C36.0645 41.2343 24.8389 41.1209 137.124 41.1633C137.387 52.6636 137.56 65.4965 137.663 81.0296C137.671 82.1869 138.611 83.1221 139.769 83.1221H139.782C140.945 83.1139 141.883 82.165 141.875 81.0022C141.724 58.1086 141.425 40.9906 140.904 25.507C140.723 19.4379 135.555 12.1816 129.222 12.1816ZM138.562 163.712C138.639 166.387 138.722 169.175 138.814 172.168C139.02 178.538 134.306 184.056 128.308 184.468C94.3052 186.804 66.5796 186.664 41.0451 184.018C37.4991 183.65 34.5017 180.039 34.5017 176.139C34.5145 172.112 34.5291 168.007 34.5444 163.867C144.327 163.802 137.806 164.01 138.562 163.712ZM35.0738 36.9966C35.0872 32.8081 35.0999 28.6535 35.1105 24.58C35.1352 20.4911 38.2094 17.1454 41.9747 17.1207C51.6334 17.0136 130.975 16.394 129.317 16.394C132.981 16.394 136.574 21.5771 136.692 25.6413C136.815 29.2978 136.925 33.0568 137.024 36.951C24.5845 36.9917 36.0778 36.8838 35.0738 36.9966Z" fill="#DFBE16"/>
<path d="M89.3025 25.9404H68.9401C67.7774 25.9404 66.834 26.8838 66.834 28.0466C66.834 29.2094 67.7774 30.1528 68.9401 30.1528H89.3025C90.4653 30.1528 91.4086 29.2094 91.4086 28.0466C91.4086 26.8838 90.4653 25.9404 89.3025 25.9404Z" fill="#DFBE16"/>
<path d="M94.3291 27.8485C94.3291 28.4107 94.554 28.9428 94.9461 29.3377C95.1436 29.5351 95.3959 29.675 95.6482 29.7874C95.9032 29.8999 96.183 29.9547 96.4353 29.9547C96.7177 29.9547 96.9975 29.8999 97.2498 29.7874C97.5021 29.675 97.7269 29.5351 97.9244 29.3377C98.3467 28.9428 98.5414 28.4107 98.5414 27.8485C98.5414 25.0173 94.3291 25.1469 94.3291 27.8485Z" fill="#DFBE16"/>
<path d="M83.9974 182.015C86.8716 182.015 89.2016 178.845 89.2016 174.936C89.2016 171.026 86.8716 167.856 83.9974 167.856C81.123 167.856 78.793 171.026 78.793 174.936C78.793 178.845 81.123 182.015 83.9974 182.015Z" fill="#DFBE16"/>
<path d="M160.572 97.7881C158.57 97.5538 156.473 95.7041 154.177 94.5109C145.363 89.8296 134.528 94.1204 130.587 104.175C127.204 112.916 130.367 124.211 125.744 131.204C123.944 133.904 120.085 135.757 117.552 133.796C115.762 132.41 114.619 129.348 111.933 127.667C107.882 125.124 103.067 127.181 99.9075 129.943C97.2828 132.244 95.004 135.361 92.2974 136.878C89.3218 138.535 85.2549 138.795 82.7483 134.616C80.9411 131.55 80.3131 126.515 81.1961 121.551C81.8903 117.658 82.0689 116.647 82.2555 112.952C85.8469 113.143 89.0273 112.901 92.4153 111.761C103.218 108.132 108.875 97.3438 110.567 88.4584C112.457 78.5638 110.745 68.2551 109.237 59.1559C109.07 58.1576 108.217 57.4172 107.202 57.3952C105.99 57.3695 104.843 57.4751 103.567 57.5759C102.235 50.0749 97.2505 49.7699 94.5242 53.5092C92.7553 55.9308 90.6025 60.8507 91.9216 64.5008C93.8636 69.8823 102.77 70.4513 103.704 61.7644C103.8 61.7574 103.402 61.7931 105.381 61.6624C106.796 70.2708 108.063 79.1151 106.432 87.6686C104.583 97.3657 98.5555 105.253 91.0715 107.768C87.4076 109.002 83.0006 109.161 77.9738 108.239C66.2216 106.097 60.6246 99.9209 61.8018 84.0788C62.2728 77.7655 63.4137 71.1897 62.1254 65.041C63.3259 65.0646 63.6978 65.0429 66.4905 65.0309C66.2746 73.308 77.9923 74.7255 78.7417 64.6297C79.3722 56.0198 73.4747 51.3374 69.4861 56.7809C68.7537 57.7824 67.9683 59.2251 67.3778 60.8174C65.2243 60.7922 63.9655 60.8649 62.2214 60.8287C59.694 60.7219 57.6483 63.0549 58.0969 65.595C59.1238 71.3564 58.0772 77.4062 57.6005 83.7662C56.3906 100.061 61.7444 109.841 78.0614 112.502C77.8831 116.114 77.7251 117.015 77.0085 121.049C75.2923 130.706 78.576 142.234 88.2715 142.234C93.2886 142.234 96.6074 139.286 100.067 135.688C100.919 134.8 101.772 133.911 102.683 133.113C104.608 131.426 107.6 129.932 109.698 131.237C111.301 132.239 112.749 135.404 114.972 137.125C119.453 140.607 126.005 138.399 129.254 133.535C134.753 125.208 131.404 113.742 134.511 105.703C137.546 97.9688 145.64 94.7467 152.213 98.2378C154.468 99.4111 156.896 101.595 160.048 101.97C165.75 102.716 170.289 97.4562 171.451 91.9632C172.169 88.6982 171.942 85.4017 171.394 82.2169C174.098 81.4339 176.582 79.8936 178.374 77.7353C180.875 74.7242 181.573 71.4433 181.573 67.5942C181.573 59.8524 175.274 53.5531 167.532 53.5531C159.345 53.5531 152.406 60.7137 153.694 69.6011C153.661 75.7774 159.254 82.7486 167.218 82.7988C167.704 85.5809 167.919 88.4099 167.335 91.0747C166.575 94.6425 163.696 98.1994 160.572 97.7881ZM167.532 77.423C162.113 77.423 157.704 73.0132 157.704 67.5942C157.704 62.1752 162.113 57.7655 167.532 57.7655C172.951 57.7655 177.361 62.1752 177.361 67.5942C177.361 73.0132 172.951 77.423 167.532 77.423Z" fill="#DFBE16"/>
</svg>
